<svg width="320" height="75" viewBox="0 0 320 75" fill="none" xmlns="http://www.w3.org/2000/svg">
<path d="M204.606 57.0073H170.592C165.445 57.0073 161.273 52.7854 161.273 47.5777V13.1665C161.273 12.5782 161.336 12.0137 161.43 11.4571C157.093 12.2602 153.808 16.1004 153.808 20.7198V55.1389C153.808 60.3467 157.981 64.5685 163.127 64.5685H197.142C201.707 64.5685 205.502 61.2372 206.296 56.8563C205.746 56.9517 205.188 57.0073 204.606 57.0073Z" fill="#FF4F5B"/>
<path d="M160.77 66.9458C155.623 66.9458 151.451 62.7239 151.451 57.5162V27.9073C148.387 28.9807 146.187 31.9225 146.187 35.3891V64.3459C146.187 68.7268 149.699 72.2808 154.028 72.2808H182.645C186.071 72.2808 188.978 70.0546 190.039 66.9538H160.77V66.9458Z" fill="#FF4F5B"/>
<path d="M207.749 53.827H173.735C168.588 53.827 164.416 49.6051 164.416 44.3973V9.98623C164.416 4.77844 168.588 0.556564 173.735 0.556564H207.749C212.896 0.556564 217.068 4.77844 217.068 9.98623V44.4053C217.068 49.6051 212.896 53.827 207.749 53.827Z" fill="#FF4F5B"/>
<path d="M210.507 22.5565C210.334 22.0078 209.871 21.6103 209.305 21.5308L197.401 19.7816L192.082 8.86515C191.83 8.34835 191.32 8.02237 190.746 8.02237C190.172 8.02237 189.662 8.34835 189.41 8.86515L184.083 19.7816L172.179 21.5308C171.613 21.6103 171.15 22.0078 170.977 22.5565C170.804 23.1051 170.945 23.7014 171.354 24.0989L179.966 32.5983L177.931 44.5961C177.836 45.1686 178.064 45.7331 178.52 46.067C178.983 46.4089 179.581 46.4486 180.091 46.1783L190.738 40.5173L201.385 46.1783C201.605 46.2976 201.841 46.3532 202.076 46.3532C202.383 46.3532 202.689 46.2578 202.948 46.067C203.412 45.7251 203.64 45.1606 203.538 44.5961L201.518 32.5983L210.13 24.0989C210.539 23.7014 210.688 23.1051 210.507 22.5565Z" fill="white"/>
<path d="M10.301 0.882538C12.7683 0.882538 15.2748 0.898439 17.8127 0.922292C20.3506 0.946144 22.865 0.993849 25.3558 1.06541C27.8466 1.13696 30.1567 1.29598 32.286 1.54246L31.8538 8.29269H13.4204C11.9668 8.29269 10.8825 8.63458 10.1517 9.31835C9.42887 10.0021 9.06743 11.0834 9.06743 12.5464V51.6803H0V10.7177C0 7.63278 0.942886 5.22368 2.82866 3.4904C4.71443 1.74918 7.20522 0.882538 10.301 0.882538ZM1.23361 22.6121H29.0959V29.3623H1.23361V22.6121Z" fill="#375A64"/>
<path d="M62.1756 29.5134L62.1049 35.0154H45.7772C44.3236 35.0631 43.2864 35.4527 42.6578 36.1921C42.0292 36.9236 41.7149 37.9333 41.7149 39.2054V41.1852C41.7149 42.6561 42.0999 43.7533 42.8778 44.4927C43.6479 45.2242 44.8579 45.5899 46.5079 45.5899C47.8123 45.5899 49.2659 45.3355 50.8609 44.8187C52.456 44.3019 54.0432 43.5307 55.6147 42.505C57.1861 41.4794 58.6005 40.255 59.8576 38.8318V43.4591C59.3705 44.1906 58.6712 45.0652 57.7519 46.067C56.8326 47.0688 55.7089 48.0626 54.381 49.0406C53.0531 50.0186 51.5288 50.8295 49.808 51.4656C48.0873 52.1017 46.1936 52.4197 44.1114 52.4197C41.9821 52.4197 40.0727 52.0381 38.3834 51.2827C36.6862 50.5274 35.3583 49.3984 34.3919 47.9036C33.4254 46.4089 32.9382 44.5643 32.9382 42.3619V38.5455C32.9382 35.7071 33.8654 33.4888 35.7276 31.8986C37.5898 30.3085 40.1435 29.5134 43.3807 29.5134H62.1756ZM52.7467 14.7567C55.5989 14.7567 58.019 15.1383 59.9991 15.8937C61.9791 16.6569 63.472 17.937 64.4621 19.7498C65.4521 21.5626 65.9471 24.0591 65.9471 27.2395V51.6803H58.9855L57.7519 43.8964L57.0997 42.8708V27.16C57.0997 25.2518 56.6675 23.8683 55.7954 23.0096C54.9232 22.151 53.2574 21.7216 50.7902 21.7216C48.9516 21.7216 46.6415 21.7932 43.86 21.9442C41.0785 22.0953 38.2813 22.2861 35.4762 22.5326L34.6747 16.4423C36.3641 16.1004 38.2734 15.8062 40.4028 15.5597C42.5321 15.3133 44.685 15.1224 46.8615 14.9714C49.0459 14.8283 51.0024 14.7567 52.7467 14.7567Z" fill="#375A64"/>
<path d="M106.578 15.6392L94.3201 49.5574C94.0765 50.1935 93.6993 50.7103 93.1965 51.0999C92.6857 51.4894 92.0729 51.6882 91.35 51.6882H83.6576C82.9819 51.6882 82.3768 51.4894 81.8425 51.0999C81.3082 50.7103 80.9232 50.1935 80.6796 49.5574L68.4221 15.6392H77.7803L85.2526 39.277C85.5905 40.3583 85.9048 41.4396 86.1955 42.5448C86.4863 43.642 86.7534 44.7074 86.997 45.741H87.9399C88.2777 44.6677 88.5999 43.5863 88.922 42.513C89.2363 41.4396 89.5428 40.3583 89.8256 39.285L97.298 15.6472H106.578V15.6392Z" fill="#375A64"/>
<path d="M122.245 14.7567C123.887 14.7567 125.663 14.8044 127.58 14.9078C129.498 15.0111 131.368 15.1383 133.206 15.3133C135.045 15.4882 136.687 15.7187 138.141 16.0129L137.559 21.8091C135.233 21.7614 132.931 21.6978 130.629 21.6262C128.327 21.5546 126.072 21.5149 123.848 21.5149C121.868 21.5149 120.304 21.5626 119.165 21.658C118.026 21.7614 117.232 22.0476 116.769 22.5405C116.313 23.0335 116.077 23.8604 116.077 25.0371C116.077 26.4603 116.462 27.3985 117.24 27.8596C118.01 28.3287 119.267 28.774 121.012 29.2192L130.731 31.4932C133.678 32.2246 135.846 33.3377 137.221 34.8325C138.596 36.3273 139.288 38.6171 139.288 41.694C139.288 44.6836 138.746 46.9416 137.654 48.484C136.569 50.0265 134.848 51.076 132.499 51.6405C130.15 52.205 127.164 52.4833 123.542 52.4833C122.135 52.4833 120.061 52.4197 117.303 52.3004C114.545 52.1812 111.52 51.8472 108.235 51.3066L108.817 45.5104C109.783 45.5104 110.931 45.5343 112.266 45.582C113.594 45.6297 115.024 45.6536 116.549 45.6536C118.073 45.6536 119.629 45.6536 121.232 45.6536C123.793 45.6536 125.765 45.5661 127.148 45.3991C128.523 45.2322 129.482 44.8585 130.016 44.294C130.55 43.7295 130.818 42.9105 130.818 41.8372C130.818 40.4696 130.37 39.5473 129.474 39.0862C128.578 38.625 127.258 38.1718 125.522 37.7266L116.014 35.3811C113.838 34.7927 112.141 34.0454 110.938 33.139C109.728 32.2326 108.856 31.1115 108.33 29.7599C107.795 28.4162 107.528 26.7624 107.528 24.8065C107.528 22.1669 108.023 20.1076 109.013 18.6367C110.003 17.1658 111.575 16.1401 113.728 15.5518C115.873 14.9793 118.717 14.709 122.245 14.7567Z" fill="#375A64"/>
<path d="M235.407 0.294174L235.337 40.8195C235.337 42.187 235.722 43.2285 236.499 43.9362C237.27 44.6438 238.385 45.0016 239.839 45.0016H242.958L243.972 51.243C243.438 51.4894 242.699 51.7041 241.756 51.9029C240.813 52.1016 239.847 52.2368 238.857 52.3084C237.867 52.3799 237.01 52.4197 236.279 52.4197C233.333 52.4197 230.984 51.6087 229.239 49.9947C227.495 48.3807 226.631 46.059 226.631 43.0218V0.294174H235.407Z" fill="#375A64"/>
<path d="M253.11 0C254.854 0 255.719 0.88254 255.719 2.63967V6.75024C255.719 8.51532 254.847 9.38991 253.11 9.38991H249.189C247.445 9.38991 246.581 8.50737 246.581 6.75024V2.63967C246.581 0.874589 247.453 0 249.189 0H253.11ZM255.499 15.6392V51.6803H246.793V15.6392H255.499Z" fill="#375A64"/>
<path d="M275.598 14.7567C277.24 14.7567 279.016 14.8044 280.933 14.9078C282.85 15.0111 284.72 15.1383 286.559 15.3133C288.398 15.4882 290.04 15.7187 291.493 16.0129L290.912 21.8091C288.586 21.7614 286.284 21.6978 283.982 21.6262C281.68 21.5546 279.424 21.5149 277.201 21.5149C275.221 21.5149 273.657 21.5626 272.518 21.658C271.378 21.7614 270.585 22.0476 270.121 22.5405C269.666 23.0335 269.43 23.8604 269.43 25.0371C269.43 26.4603 269.815 27.3985 270.593 27.8596C271.363 28.3287 272.62 28.774 274.364 29.2192L284.084 31.4932C287.03 32.2246 289.199 33.3377 290.574 34.8325C291.949 36.3273 292.641 38.6171 292.641 41.694C292.641 44.6836 292.098 46.9416 291.006 48.484C289.922 50.0265 288.201 51.076 285.852 51.6405C283.502 52.205 280.517 52.4833 276.894 52.4833C275.488 52.4833 273.414 52.4197 270.656 52.3004C267.898 52.1812 264.873 51.8472 261.588 51.3066L262.17 45.5104C263.136 45.5104 264.283 45.5343 265.619 45.582C266.947 45.6297 268.377 45.6536 269.901 45.6536C271.426 45.6536 272.981 45.6536 274.584 45.6536C277.146 45.6536 279.118 45.5661 280.501 45.3991C281.876 45.2322 282.835 44.8585 283.369 44.294C283.903 43.7295 284.17 42.9105 284.17 41.8372C284.17 40.4696 283.722 39.5473 282.827 39.0862C281.931 38.625 280.611 38.1718 278.874 37.7266L269.367 35.3811C267.19 34.7927 265.493 34.0454 264.291 33.139C263.081 32.2326 262.209 31.1115 261.682 29.7599C261.148 28.4162 260.881 26.7624 260.881 24.8065C260.881 22.1669 261.376 20.1076 262.366 18.6367C263.356 17.1658 264.928 16.1401 267.08 15.5518C269.226 14.9793 272.062 14.709 275.598 14.7567Z" fill="#375A64"/>
<path d="M320 15.6392V21.8091H294.314V16.0129L301.276 15.6472H320V15.6392ZM309.408 5.35884V40.8195C309.408 42.2904 309.738 43.3558 310.39 44.0157C311.043 44.6756 312.166 45.0095 313.761 45.0095H318.696L319.639 51.2509C318.814 51.4974 317.824 51.7121 316.661 51.9108C315.498 52.1096 314.366 52.2448 313.251 52.3163C312.135 52.3879 311.192 52.4277 310.422 52.4277C307.326 52.4277 304.922 51.5849 303.201 49.8913C301.48 48.2058 300.624 45.7728 300.624 42.5845V5.35884H309.408Z" fill="#375A64"/>
<path d="M234.158 61.6108C234.402 61.6108 234.614 61.6824 234.802 61.8255C234.991 61.9686 235.109 62.1594 235.179 62.39L239.014 75H236.02L233.317 65.1649C233.262 64.9422 233.215 64.7196 233.16 64.497C233.105 64.2744 233.066 64.0517 233.027 63.845H232.508C232.469 64.0517 232.429 64.2664 232.382 64.497C232.335 64.7276 232.28 64.9502 232.217 65.1649L229.514 75H226.505L230.363 62.39C230.426 62.1594 230.551 61.9686 230.74 61.8255C230.929 61.6824 231.141 61.6108 231.384 61.6108H234.158ZM236.193 69.2357V71.4698H229.326V69.2357H236.193Z" fill="#FF4F5B"/>
<path d="M245.433 61.4121C246.675 61.4121 247.649 61.5393 248.348 61.8017C249.048 62.064 249.551 62.5093 249.857 63.1374C250.156 63.7735 250.305 64.656 250.305 65.793C250.305 66.9299 250.164 67.8204 249.873 68.4485C249.582 69.0766 249.118 69.5219 248.466 69.7763C247.814 70.0307 246.934 70.158 245.818 70.158C245.229 70.158 244.655 70.1341 244.09 70.0784C243.524 70.0307 243.005 69.9592 242.518 69.8876C242.031 69.8081 241.615 69.7286 241.269 69.6491C240.923 69.5696 240.688 69.4821 240.562 69.4026L240.617 67.9317C241.371 67.9317 242.157 67.9317 242.966 67.9317C243.775 67.9317 244.577 67.9317 245.371 67.9317C245.881 67.9158 246.282 67.8522 246.573 67.7409C246.863 67.6296 247.068 67.407 247.186 67.0969C247.303 66.7868 247.366 66.3495 247.366 65.8009C247.366 65.2285 247.303 64.7912 247.186 64.4811C247.068 64.171 246.856 63.9563 246.573 63.8291C246.282 63.7098 245.889 63.6462 245.371 63.6462C244.192 63.6462 243.186 63.6542 242.338 63.6621C241.497 63.678 240.923 63.7019 240.633 63.7417L240.342 61.6108C240.876 61.5472 241.387 61.4995 241.858 61.4757C242.33 61.4518 242.848 61.4359 243.398 61.428C243.964 61.42 244.64 61.4121 245.433 61.4121ZM243.288 61.6108V75H240.358V61.6108H243.288Z" fill="#FF4F5B"/>
<path d="M257.282 61.4121C258.524 61.4121 259.498 61.5393 260.197 61.8017C260.897 62.064 261.4 62.5093 261.706 63.1374C262.005 63.7735 262.154 64.656 262.154 65.793C262.154 66.9299 262.012 67.8204 261.722 68.4485C261.431 69.0766 260.967 69.5219 260.315 69.7763C259.663 70.0307 258.783 70.158 257.667 70.158C257.078 70.158 256.504 70.1341 255.939 70.0784C255.373 70.0307 254.854 69.9592 254.367 69.8876C253.88 69.8081 253.464 69.7286 253.118 69.6491C252.772 69.5696 252.536 69.4821 252.411 69.4026L252.466 67.9317C253.22 67.9317 254.006 67.9317 254.815 67.9317C255.624 67.9317 256.426 67.9317 257.219 67.9317C257.73 67.9158 258.131 67.8522 258.422 67.7409C258.712 67.6296 258.917 67.407 259.034 67.0969C259.152 66.7868 259.215 66.3495 259.215 65.8009C259.215 65.2285 259.152 64.7912 259.034 64.4811C258.917 64.171 258.704 63.9563 258.422 63.8291C258.131 63.7098 257.738 63.6462 257.219 63.6462C256.041 63.6462 255.035 63.6542 254.186 63.6621C253.346 63.678 252.772 63.7019 252.481 63.7417L252.191 61.6108C252.725 61.5472 253.236 61.4995 253.707 61.4757C254.179 61.4518 254.697 61.4359 255.247 61.428C255.821 61.42 256.489 61.4121 257.282 61.4121ZM255.137 61.6108V75H252.206V61.6108H255.137Z" fill="#FF4F5B"/>
</svg>
