<?xml version="1.0" encoding="utf-8"?>
<!-- Generator: Adobe Illustrator 23.0.3, SVG Export Plug-In . SVG Version: 6.00 Build 0)  -->
<svg version="1.1" id="Capa_1" xmlns="http://www.w3.org/2000/svg" xmlns:xlink="http://www.w3.org/1999/xlink" x="0px" y="0px"
	 viewBox="0 0 428 320.4" enable-background="new 0 0 428 320.4" xml:space="preserve">
<g>
	<path d="M392.5,2C286.1,2.4,259.7,2.2,153.3,2.2c-8.1-0.1-13.8,2.6-19.1,8.6c-40.1,45.4-80.5,90.7-120.7,136
		c-3.3,3.7-6.3,7.6-9.5,11.5c0,1.3,0,2.7,0,4c1.2,1.6,2.2,3.3,3.5,4.8c42.6,47.9,85.2,95.8,127.7,143.8c4.6,5.1,9.7,7.5,16.6,7.5
		c108.4-0.1,136.8-0.1,245.2-0.1c2.8,0,5.7-0.2,8.4-0.9c10.5-2.7,15.7-10.4,18.6-20.2c0-91.3,0-182.6,0-274
		C419.8,8.2,410.1,1.9,392.5,2z M407.4,290.3c0,9.3-2.6,11.9-11.9,11.9c-107.1,0-134.3,0-241.4-0.1c-2.3,0-5.4-1-6.9-2.6
		c-40.5-45.4-80.9-90.8-121.3-136.3c-0.8-0.8-1.5-1.8-2.5-3.1c15.6-17.6,30.9-34.7,46.1-51.9c25.4-28.7,50.9-57.3,76.3-86
		c2.4-2.7,4.8-4,8.5-4c107,0.1,133.9,0.1,240.9,0.1c9.6,0,12.2,2.6,12.2,12.1C407.4,117,407.4,203.7,407.4,290.3z"/>
	<path d="M343.6,93.9c1.2-1.2,2.4-2.4,3.4-3.7c2.7-3.6,2.3-8-0.9-10.8c-3.3-2.9-6.9-3-10.5-0.4c-1.3,1-2.4,2.2-3.6,3.4
		c-20.7,20.7-41.5,41.5-62.2,62.2c-1.3,1.2-2.6,2.5-4.1,3.9c-1.5-1.4-2.8-2.7-4.4-3.8c-20.9-20.8-41.7-41.7-62.6-62.5
		c-1.2-1.2-2.3-2.5-3.7-3.4c-3.6-2.3-7.3-2.2-10.4,1c-3,3.2-3.1,6.9-0.6,10.5c0.9,1.3,2.2,2.4,3.4,3.6
		c20.8,20.9,41.7,41.7,62.5,62.6c1.2,1.2,2.4,2.5,4.1,4.4c-1.8,1.5-3.3,2.6-4.6,3.9c-20.7,20.7-41.5,41.5-62.2,62.2
		c-1.2,1.3-2.7,2.6-3.6,4.1c-2.1,3.4-1.9,6.8,0.8,9.7c2.9,3.1,6.4,3.5,10,1.5c1.6-0.8,2.9-2.2,4.2-3.5c21-21,41.9-41.9,62.9-62.9
		c1.3-1.2,2.6-2.4,4.8-4.4c1.3,1.8,2.2,3.4,3.5,4.7c20.7,20.7,41.5,41.5,62.2,62.2c1.2,1.2,2.3,2.5,3.7,3.4
		c3.7,2.5,7.4,2.4,10.5-0.7c3.1-3,3.4-6.7,0.9-10.4c-1-1.4-2.2-2.5-3.4-3.7c-20.8-20.9-41.7-41.7-62.5-62.6
		c-1.2-1.3-2.4-2.6-3.8-4.1c1.5-1.6,2.7-2.9,4-4.2C302.1,135.4,322.9,114.6,343.6,93.9z"/>
</g>
</svg>
