<svg width="303" height="69" viewBox="0 0 303 69" fill="none" xmlns="http://www.w3.org/2000/svg">
<path d="M197.683 54.4197H164.819C159.847 54.4197 155.816 50.3894 155.816 45.418V12.5688C155.816 12.0072 155.877 11.4683 155.968 10.937C151.777 11.7036 148.604 15.3695 148.604 19.7793V52.6361C148.604 57.6075 152.635 61.6377 157.607 61.6377H190.471C194.882 61.6377 198.548 58.4575 199.315 54.2755C198.784 54.3666 198.245 54.4197 197.683 54.4197Z" fill="#71BDF8"/>
<path d="M155.33 63.9071C150.358 63.9071 146.326 59.8769 146.326 54.9055V26.6406C143.366 27.6653 141.24 30.4735 141.24 33.7827V61.4252C141.24 65.6073 144.634 69 148.816 69H176.465C179.775 69 182.583 66.8748 183.608 63.9147H155.33V63.9071Z" fill="#71BDF8"/>
<path d="M200.72 51.3837H167.856C162.884 51.3837 158.852 47.3535 158.852 42.3821V9.5329C158.852 4.5615 162.884 0.53125 167.856 0.53125H200.72C205.692 0.53125 209.723 4.5615 209.723 9.5329V42.3897C209.723 47.3535 205.692 51.3837 200.72 51.3837Z" fill="#71BDF8"/>
<path d="M203.384 21.5326C203.217 21.0089 202.769 20.6294 202.223 20.5535L190.722 18.8837L185.582 8.46273C185.339 7.96939 184.846 7.6582 184.292 7.6582C183.737 7.6582 183.244 7.96939 183.001 8.46273L177.854 18.8837L166.353 20.5535C165.806 20.6294 165.358 21.0089 165.191 21.5326C165.024 22.0563 165.161 22.6255 165.556 23.005L173.876 31.1187L171.91 42.5719C171.819 43.1183 172.039 43.6572 172.479 43.976C172.927 44.3024 173.504 44.3403 173.997 44.0822L184.284 38.6782L194.57 44.0822C194.783 44.1961 195.011 44.2492 195.239 44.2492C195.535 44.2492 195.831 44.1581 196.081 43.976C196.529 43.6496 196.749 43.1107 196.651 42.5719L194.7 31.1187L203.02 23.005C203.415 22.6255 203.559 22.0563 203.384 21.5326Z" fill="white"/>
<path d="M9.95247 0.842529C12.3362 0.842529 14.7579 0.857709 17.21 0.880479C19.662 0.903249 22.0913 0.948788 24.4978 1.0171C26.9043 1.08541 29.1362 1.23721 31.1935 1.47249L30.776 7.91634H12.9663C11.5619 7.91634 10.5142 8.24271 9.80823 8.89544C9.10981 9.54817 8.7606 10.5804 8.7606 11.9769V49.3346H0V10.2313C0 7.28637 0.910981 4.98663 2.73294 3.32443C4.55491 1.66983 6.96142 0.842529 9.95247 0.842529ZM1.19187 21.5858H28.1114V28.0296H1.19187V21.5858Z" fill="white"/>
<path d="M60.0716 28.1738L60.0033 33.4336H44.2281C42.8237 33.4792 41.8216 33.8511 41.2143 34.5569C40.607 35.2552 40.3033 36.2191 40.3033 37.4335V39.3234C40.3033 40.7275 40.6753 41.775 41.4269 42.4732C42.1708 43.1715 43.3399 43.5282 44.9341 43.5282C46.1943 43.5282 47.5988 43.2853 49.1398 42.792C50.6809 42.2987 52.2144 41.5624 53.7327 40.5833C55.251 39.6042 56.6175 38.4354 57.8321 37.0768V41.4941C57.3615 42.1924 56.6858 43.0273 55.7976 43.9836C54.9094 44.94 53.8238 45.8887 52.5408 46.8223C51.2579 47.7558 49.7851 48.53 48.1226 49.1372C46.46 49.7444 44.6305 50.048 42.6187 50.048C40.5614 50.048 38.7167 49.6837 37.0845 48.9626C35.4448 48.2416 34.1618 47.1638 33.228 45.7369C32.2943 44.31 31.8236 42.5491 31.8236 40.4467V36.8036C31.8236 34.094 32.7194 31.9764 34.5186 30.4584C36.3178 28.9404 38.785 28.1814 41.9127 28.1814H60.0716V28.1738ZM50.9618 14.0869C53.7175 14.0869 56.0557 14.4512 57.9688 15.1723C59.8818 15.9009 61.3242 17.1229 62.2808 18.8534C63.2373 20.5839 63.7155 22.9671 63.7155 26.0031V49.3345H56.9895L55.7976 41.904L55.1675 40.9249V25.9272C55.1675 24.1056 54.75 22.785 53.9073 21.9653C53.0647 21.1455 51.4553 20.7357 49.0715 20.7357C47.2951 20.7357 45.0632 20.804 42.3758 20.9482C39.6884 21.0848 36.9858 21.2746 34.2757 21.5099L33.5013 15.696C35.1335 15.3696 36.9782 15.0888 39.0355 14.8535C41.0928 14.6182 43.1729 14.4361 45.2758 14.2918C47.3862 14.1552 49.2765 14.0869 50.9618 14.0869Z" fill="white"/>
<path d="M102.971 14.9294L91.1286 47.3081C90.8932 47.9153 90.5288 48.4086 90.043 48.7805C89.5495 49.1524 88.9574 49.3422 88.259 49.3422H80.8269C80.174 49.3422 79.5895 49.1524 79.0732 48.7805C78.557 48.4086 78.185 47.9153 77.9497 47.3081L66.1069 14.9294H75.1484L82.368 37.4943C82.6944 38.5189 82.998 39.5587 83.2789 40.6137C83.5598 41.6612 83.8179 42.6782 84.0533 43.6649H84.9642C85.2907 42.6403 85.6019 41.608 85.9132 40.5834C86.2168 39.5588 86.5129 38.5265 86.7862 37.5019L94.0057 14.937H102.971V14.9294Z" fill="white"/>
<path d="M118.109 14.0869C119.695 14.0869 121.411 14.1325 123.263 14.2235C125.108 14.3146 126.923 14.4436 128.699 14.6106C130.475 14.7776 132.062 14.9977 133.466 15.2785L132.905 20.8116C130.658 20.766 128.433 20.7053 126.209 20.637C123.985 20.5687 121.806 20.5308 119.657 20.5308C117.744 20.5308 116.234 20.5763 115.133 20.675C114.032 20.766 113.265 21.0469 112.818 21.5174C112.377 21.988 112.149 22.7774 112.149 23.9007C112.149 25.2593 112.521 26.1549 113.273 26.6027C114.017 27.0505 115.232 27.4755 116.917 27.9006L126.308 30.0713C129.154 30.7696 131.25 31.8322 132.578 33.2591C133.907 34.686 134.575 36.8719 134.575 39.8092C134.575 42.663 134.051 44.8185 132.996 46.291C131.941 47.7634 130.286 48.7653 128.016 49.3042C125.746 49.843 122.861 50.1087 119.361 50.1087C118.003 50.1087 115.998 50.048 113.334 49.9341C110.669 49.8203 107.746 49.5015 104.573 48.9854L105.135 43.4523C106.069 43.4523 107.177 43.4751 108.468 43.5206C109.751 43.5662 111.132 43.5889 112.605 43.5889C114.078 43.5889 115.581 43.5889 117.129 43.5889C119.604 43.5889 121.51 43.5055 122.846 43.3461C124.174 43.1867 125.101 42.83 125.617 42.2911C126.133 41.7522 126.391 40.9704 126.391 39.9458C126.391 38.6403 125.958 37.7599 125.093 37.3197C124.228 36.8795 122.952 36.4468 121.274 36.0218L112.089 33.7828C109.986 33.2211 108.346 32.5077 107.185 31.6424C106.016 30.7772 105.173 29.707 104.664 28.4167C104.148 27.134 103.89 25.5553 103.89 23.6882C103.89 21.1683 104.368 19.2025 105.325 17.7984C106.281 16.3943 107.8 15.4152 109.88 14.8535C111.952 14.2994 114.7 14.0414 118.109 14.0869Z" fill="white"/>
<path d="M245.312 28.1738L245.244 33.4336H229.476C228.072 33.4792 227.07 33.8511 226.462 34.5569C225.855 35.2552 225.551 36.2191 225.551 37.4335V39.3234C225.551 40.7275 225.923 41.775 226.675 42.4732C227.419 43.1715 228.588 43.5282 230.182 43.5282C231.442 43.5282 232.847 43.2853 234.388 42.792C235.929 42.2987 237.462 41.5624 238.981 40.5833C240.499 39.6042 241.866 38.4354 243.08 37.0768V41.4941C242.609 42.1924 241.934 43.0273 241.046 43.9836C240.157 44.94 239.072 45.8887 237.789 46.8223C236.506 47.7558 235.033 48.53 233.371 49.1372C231.708 49.7444 229.879 50.048 227.867 50.048C225.809 50.048 223.965 49.6837 222.333 48.9626C220.693 48.2416 219.41 47.1638 218.476 45.7369C217.542 44.31 217.072 42.5491 217.072 40.4467V36.8036C217.072 34.094 217.967 31.9764 219.767 30.4584C221.566 28.9404 224.033 28.1814 227.161 28.1814H245.312V28.1738ZM236.202 14.0869C238.958 14.0869 241.296 14.4512 243.209 15.1723C245.122 15.9009 246.565 17.1229 247.521 18.8534C248.478 20.5839 248.956 22.9671 248.956 26.0031V49.3345H242.23L241.038 41.904L240.408 40.9249V25.9272C240.408 24.1056 239.99 22.785 239.148 21.9653C238.305 21.1455 236.696 20.7357 234.312 20.7357C232.536 20.7357 230.304 20.804 227.616 20.9482C224.929 21.0848 222.226 21.2746 219.516 21.5099L218.742 15.696C220.374 15.3696 222.219 15.0888 224.276 14.8535C226.333 14.6182 228.413 14.4361 230.516 14.2918C232.627 14.1552 234.517 14.0869 236.202 14.0869Z" fill="white"/>
<path d="M262.279 14.9294L263.122 21.5858L263.896 22.5649V44.7806L263.547 45.623C263.684 46.9816 263.782 48.3478 263.828 49.7216C263.873 51.0954 263.896 52.5147 263.896 53.9644V63.004H255.416V14.9294H262.279ZM276.786 14.0869C281.083 14.0869 284.158 15.6504 286.003 18.7851C287.847 21.9121 288.773 26.4509 288.773 32.3786C288.773 36.9098 288.295 40.4695 287.339 43.0652C286.382 45.661 284.94 47.5053 283.027 48.5983C281.114 49.6988 278.684 50.2453 275.739 50.2453C273.401 50.2453 271.123 49.9038 268.906 49.2283C266.69 48.5528 264.64 47.4902 262.773 46.0405L263.334 41.8357C265.156 42.3518 266.788 42.792 268.238 43.1639C269.688 43.5358 271.275 43.7256 273.006 43.7256C274.737 43.7256 276.103 43.4372 277.105 42.8527C278.107 42.2683 278.844 41.1602 279.314 39.5208C279.785 37.8889 280.013 35.5285 280.013 32.4394C280.013 29.4034 279.8 27.0429 279.383 25.358C278.965 23.673 278.274 22.4965 277.318 21.821C276.361 21.1455 275.109 20.804 273.568 20.804C271.882 20.804 270.296 21.1683 268.8 21.8894C267.305 22.618 265.574 23.673 263.615 25.0771L262.636 20.5915C263.714 19.3316 265.004 18.2082 266.53 17.2291C268.049 16.25 269.696 15.4759 271.472 14.9142C273.234 14.3677 275.01 14.0869 276.786 14.0869Z" fill="white"/>
<path d="M300.48 0C302.165 0 303 0.842481 303 2.51985V6.44385C303 8.12881 302.157 8.9637 300.48 8.9637H296.691C295.006 8.9637 294.171 8.12122 294.171 6.44385V2.51985C294.171 0.834892 295.014 0 296.691 0H300.48ZM302.787 14.9294V49.3345H294.376V14.9294H302.787Z" fill="white"/>
</svg>
